<svg alt="Logo" viewBox="0 0 672 146" fill="currentColor" xmlns="http://www.w3.org/2000/svg"><path d="M43.541.198H35.08a.722.722 0 0 0-.723.724v23.556a.701.701 0 0 1-.711.712h-6.472a.711.711 0 0 1-.711-.712V.922a.724.724 0 0 0-.712-.724h-7.694a.723.723 0 0 0-.712.724v23.556a.713.713 0 0 1-.711.712h-6.027a.711.711 0 0 1-.711-.712V.922a.724.724 0 0 0-.712-.724H.712A.722.722 0 0 0 0 .922v37.454a.713.713 0 0 0 .712.712h42.83a.711.711 0 0 0 .711-.712V.922a.723.723 0 0 0-.712-.724ZM187.216 102.204h-79.255a2.65 2.65 0 0 1-2.647-2.648V2.85A2.649 2.649 0 0 0 102.679.2H56.58a2.645 2.645 0 0 0-2.635 2.649v138.656a2.648 2.648 0 0 0 2.636 2.648h130.635a2.657 2.657 0 0 0 2.646-2.648v-36.665a2.649 2.649 0 0 0-2.646-2.637ZM440.308 74.03h-24.039a2.644 2.644 0 0 1-2.646-2.648V38.223a2.648 2.648 0 0 1 2.646-2.615h26.952c14.788 0 23.005 7.2 23.005 18.916 0 12.14-9.039 19.54-25.885 19.54l-.033-.034ZM461.712.001H364.9a2.644 2.644 0 0 0-2.646 2.648v138.857a2.657 2.657 0 0 0 2.646 2.648h46.088a2.647 2.647 0 0 0 2.635-2.648V109.37a2.657 2.657 0 0 1 2.646-2.648h37.382c43.152 0 65.134-22.41 65.134-53.666C518.829 21.388 499.727 0 461.712 0ZM581.295 36.81h88.061a2.63 2.63 0 0 0 2.448-1.633c.132-.322.2-.667.198-1.016V2.85A2.65 2.65 0 0 0 669.356.2h-139.43a2.66 2.66 0 0 0-2.647 2.648v138.657a2.66 2.66 0 0 0 2.647 2.648h139.43a2.648 2.648 0 0 0 2.646-2.648V110.16a2.65 2.65 0 0 0-2.646-2.615h-88.061a2.637 2.637 0 0 1-2.636-2.637V90.866a2.644 2.644 0 0 1 1.625-2.447c.32-.133.664-.202 1.011-.202h88.061a2.635 2.635 0 0 0 2.646-2.637V57.14a2.648 2.648 0 0 0-2.646-2.616h-88.061a2.635 2.635 0 0 1-2.636-2.637V39.458a2.644 2.644 0 0 1 1.625-2.447c.32-.133.664-.201 1.011-.201ZM349.565.201h-36.092a2.61 2.61 0 0 0-2.613 2.226c-1.69 13.43-18.301 24.39-37.804 24.39-19.502 0-36.092-10.96-37.804-24.39A2.617 2.617 0 0 0 232.639.2h-36.047a2.656 2.656 0 0 0-2.646 2.771c1.745 36.186 36.536 65.183 79.132 65.183 42.597 0 77.443-28.997 79.133-65.183a2.663 2.663 0 0 0-1.606-2.555 2.656 2.656 0 0 0-1.04-.216ZM349.565 78.059h-36.092a2.611 2.611 0 0 0-2.613 2.225c-1.69 13.442-18.301 24.391-37.804 24.391-19.502 0-36.092-10.95-37.804-24.39a2.617 2.617 0 0 0-2.613-2.226h-36.047a2.643 2.643 0 0 0-2.478 1.712c-.126.334-.183.69-.168 1.047 1.69 36.197 36.536 65.184 79.132 65.184 42.597 0 77.443-28.987 79.133-65.184a2.654 2.654 0 0 0-.734-1.945 2.651 2.651 0 0 0-1.912-.814ZM43.541 115.79H11.664a.724.724 0 0 1-.712-.723V102.37a.712.712 0 0 0-.712-.712H.712a.71.71 0 0 0-.712.712v41.015a.726.726 0 0 0 .712.724h9.528a.724.724 0 0 0 .712-.724v-12.974a.714.714 0 0 1 .712-.712H43.54a.724.724 0 0 0 .712-.723v-12.474a.714.714 0 0 0-.712-.712ZM43.541 49.44H.711a.711.711 0 0 0-.711.712v12.473a.724.724 0 0 0 .712.724h15.31a.711.711 0 0 1 .712.712v14.31a.712.712 0 0 1-.712.711H.712a.722.722 0 0 0-.712.724v12.473a.713.713 0 0 0 .712.712h42.83a.711.711 0 0 0 .711-.712V79.806a.723.723 0 0 0-.712-.724H27.397a.712.712 0 0 1-.712-.712V64.06a.713.713 0 0 1 .712-.712H43.54a.722.722 0 0 0 .712-.723V50.152a.712.712 0 0 0-.712-.712Z"></path></svg>