<svg viewBox="0 0 263.98 266.06" xmlns="http://www.w3.org/2000/svg"><path d="m261.07 134.12c-10.28-2.19-53-4.08-63.71-3.91-13 .21-15.15-9-4-15.79 9.84-6 28.73-17 38-23.72 3.08-2.23 2-4.37-2.64-2.7-11.27 4.09-29.44 11.52-41.62 16.16-9.24 3.52-13-3.64-7-9 5.81-5.19 29.67-34 36.86-42.14 2.86-3.24 1.19-7.15-6.24-1.15-13.48 10.9-25.65 23.33-39 34.39-5.13 4.24-15.56 1-12.22-10.71 3.07-10.78 7.88-27.66 9.9-34.72.84-2.94-1.91-4.56-4-.41-3.67 7.4-13.87 27.86-17.84 36-2.34 4.81-9.75 4.94-10.77-4.94-.83-8-5.6-58-5.7-63.35-.18-10.13-5.09-10.6-4.67-2.41.6 12.44-1.58 55.15-1.77 64.21-.23 11.17-7.9 13.64-15 5-4.52-5.39-20.65-30.62-24.1-36.73-3.37-5.9-5.42-1.2-3.55 2.47 4.53 8.75 12 27.2 16.84 36.56 6.15 9 2.37 17-10.66 8.12-10.68-7.35-44.18-30.66-55.72-36.65-6.08-3.16-8-.51-2.87 2.94 7.48 5.08 45.18 40 52.87 44.7 6.9 4.25.89 14.92-6.62 12.32-4.31-1.32-24.82-6.29-28.29-7.29-9-2.59-8.16 2-3.23 4.61 2.66 1.4 19.68 9.27 24.16 10.78 12.71 4.29 13.22 12.63-.81 12.66-3.92 0-49.26 4.17-63.36 5-6.16.37-5.87 4.31 1.84 4.86 14.75 1 44.1 1.27 58.88 1.34 18.56.09 15.85 7.63 6.39 13.66-2.93 1.86-20.27 15.08-26.3 18.55-7.76 4.48-9.2 8.1 1.18 4.15 6.2-2.37 21.35-6.43 28.34-9.61 16.09-7.32 16.26-.79 6.84 8.72-3.77 3.81-34.41 39.64-39.58 45.79-2.09 2.48.69 4.31 3.24 2.09 10.43-9.07 39.57-34.1 43.44-37.83 15.12-14.58 19.8-5.37 13.59 9.26-3.1 7.31-9.94 28.2-13.39 37.63-1.76 6.2.79 7 2.65 3.32 4.66-9.31 13.43-24.92 17.7-34.41 10-22.13 18.64-19.55 16.25 2.74-1.12 10.49-1.59 43.17-1 53.71.49 9.34 3.36 10.12 4.71 2.36 2.46-14.15 6.51-44.94 7.33-59.28.94-20.37 9.48-16.86 16.07-3 3.56 7.48 10.61 18.67 14.79 25.94 2.35 4.09 5.77 2.17 4.51-1.8-3-9.3-6.33-21.46-10-30.49-5.3-13-1.88-16.87 10.39-6.48 5.86 5 37.63 34.68 48.93 43 4.07 3 5.13 0 2.56-2.49-8.06-7.72-36.36-40.3-42.64-48.55-9.23-12.14-4.3-17.62 8.28-13.21 7.29 2.55 24.42 8.65 31.88 10.66 5.66 1.52 6.41-.64 1.78-3.67-10.92-7.15-18.67-10.46-29.46-17.11-10.07-6.2-10.07-12.22 2.07-12.07 4.92-.45 58-4.36 65.47-5.24 2.72-.36 4.95-1.8.02-2.84zm-83.23 0c.42 23.63-20 44.49-43.81 45-26.67.56-48.47-19.15-47.91-46.23.55-26.68 18.81-45.11 46-46 23.46-.69 46.88 19.4 45.72 47.24z" fill="#232025"/></svg>